<svg xmlns="http://www.w3.org/2000/svg" xmlns:xlink="http://www.w3.org/1999/xlink" width="500" zoomAndPan="magnify" viewBox="0 0 375 374.999991" height="500" preserveAspectRatio="xMidYMid meet" version="1.0"><defs><clipPath id="52fdbc409d"><path d="M 77.777344 82.222656 L 256 82.222656 L 256 260.722656 L 77.777344 260.722656 Z M 77.777344 82.222656 " clip-rule="nonzero"/></clipPath></defs><g clip-path="url(#52fdbc409d)"><path fill="#fffbff" d="M 166.863281 260.394531 C 117.742188 260.394531 77.777344 220.429688 77.777344 171.308594 C 77.777344 122.183594 117.742188 82.222656 166.863281 82.222656 C 215.988281 82.222656 255.949219 122.183594 255.949219 171.308594 C 255.949219 220.429688 215.988281 260.394531 166.863281 260.394531 Z M 166.863281 89.644531 C 121.839844 89.644531 85.203125 126.28125 85.203125 171.308594 C 85.203125 216.332031 121.839844 252.96875 166.863281 252.96875 C 211.890625 252.96875 248.527344 216.332031 248.527344 171.308594 C 248.527344 126.28125 211.890625 89.644531 166.863281 89.644531 Z M 166.863281 89.644531 " fill-opacity="1" fill-rule="nonzero"/></g><path fill="#fffbff" d="M 192.625 223.296875 C 185.082031 223.296875 177.324219 221.285156 171.125 219.347656 C 158.933594 215.539062 147.671875 208.71875 138.5625 199.609375 C 126.316406 187.359375 117.957031 170.996094 115.640625 154.722656 C 114.601562 147.417969 113.992188 138.070312 118.5625 130.617188 C 122.839844 123.660156 130.570312 119.339844 138.742188 119.339844 C 140.167969 119.339844 141.546875 119.496094 142.878906 119.71875 C 142.945312 119.734375 143.019531 119.742188 143.085938 119.765625 C 147.6875 120.617188 151.332031 124.558594 151.980469 129.394531 L 155.082031 152.59375 C 155.734375 157.492188 153.136719 162.339844 148.75 164.382812 C 148.265625 164.605469 147.777344 164.820312 147.273438 165.011719 C 149.863281 170.683594 153.417969 175.800781 157.886719 180.269531 C 162.359375 184.738281 167.472656 188.300781 173.152344 190.890625 C 173.335938 190.394531 173.550781 189.898438 173.769531 189.414062 C 175.816406 185.027344 180.671875 182.414062 185.570312 183.089844 L 208.769531 186.191406 C 213.640625 186.839844 217.613281 190.550781 218.429688 195.210938 C 218.675781 196.601562 218.832031 197.988281 218.832031 199.421875 C 218.832031 207.136719 215.066406 214.382812 208.757812 218.804688 C 204.042969 222.117188 198.398438 223.296875 192.625 223.296875 Z M 138.742188 126.765625 C 133.136719 126.765625 127.820312 129.726562 124.890625 134.5 C 121.554688 139.933594 122.121094 147.605469 122.988281 153.675781 C 125.082031 168.382812 132.667969 183.214844 143.8125 194.351562 C 152.074219 202.613281 162.28125 208.804688 173.335938 212.25 C 188.171875 216.875 198.363281 217.039062 204.496094 212.726562 C 208.757812 209.742188 211.40625 204.632812 211.40625 199.421875 C 211.40625 198.40625 211.28125 197.441406 211.125 196.511719 C 210.855469 194.96875 209.492188 193.765625 207.796875 193.542969 L 184.597656 190.433594 C 182.90625 190.246094 181.199219 191.0625 180.523438 192.53125 C 179.945312 193.773438 179.527344 195.125 179.277344 196.542969 C 179.082031 197.625 178.421875 198.5625 177.472656 199.117188 C 176.523438 199.660156 175.371094 199.765625 174.347656 199.386719 C 166.152344 196.371094 158.859375 191.703125 152.667969 185.511719 C 146.476562 179.324219 141.808594 172.027344 138.792969 163.824219 C 138.414062 162.792969 138.511719 161.648438 139.0625 160.691406 C 139.609375 159.742188 140.554688 159.082031 141.636719 158.894531 C 143.046875 158.652344 144.398438 158.226562 145.640625 157.648438 C 147.109375 156.964844 147.976562 155.296875 147.746094 153.574219 L 144.621094 130.375 C 144.398438 128.671875 143.1875 127.308594 141.691406 127.054688 C 141.4375 127.003906 141.183594 126.9375 140.945312 126.839844 C 140.722656 126.898438 139.75 126.765625 138.742188 126.765625 Z M 138.742188 126.765625 " fill-opacity="1" fill-rule="nonzero"/></svg>